<svg xmlns="http://www.w3.org/2000/svg" width="400" height="120" viewBox="0 0 400 120">
  <defs>
    <linearGradient id="bell" x1="0" y1="0" x2="0" y2="1">
      <stop offset="0" stop-color="#6aa9d6"/>
      <stop offset="1" stop-color="#2f6f9e"/>
    </linearGradient>
  </defs>
  <path fill="url(#bell)" stroke="#1f4f72" stroke-width="1.5" stroke-linejoin="round"
    d="M0,116 L0,115.21 L4,115.04 L8,114.84 L12,114.61 L16,114.33 L20,114.01 L24,113.63 L28,113.19 L32,112.68 L36,112.1 L40,111.43 L44,110.67 L48,109.8 L52,108.83 L56,107.73 L60,106.5 L64,105.12 L68,103.6 L72,101.93 L76,100.08 L80,98.07 L84,95.88 L88,93.51 L92,90.96 L96,88.23 L100,85.32 L104,82.24 L108,78.99 L112,75.59 L116,72.05 L120,68.39 L124,64.62 L128,60.77 L132,56.86 L136,52.92 L140,48.98 L144,45.08 L148,41.24 L152,37.5 L156,33.89 L160,30.45 L164,27.22 L168,24.22 L172,21.49 L176,19.06 L180,16.96 L184,15.2 L188,13.81 L192,12.81 L196,12.2 L200,12 L204,12.2 L208,12.81 L212,13.81 L216,15.2 L220,16.96 L224,19.06 L228,21.49 L232,24.22 L236,27.22 L240,30.45 L244,33.89 L248,37.5 L252,41.24 L256,45.08 L260,48.98 L264,52.92 L268,56.86 L272,60.77 L276,64.62 L280,68.39 L284,72.05 L288,75.59 L292,78.99 L296,82.24 L300,85.32 L304,88.23 L308,90.96 L312,93.51 L316,95.88 L320,98.07 L324,100.08 L328,101.93 L332,103.6 L336,105.12 L340,106.5 L344,107.73 L348,108.83 L352,109.8 L356,110.67 L360,111.43 L364,112.1 L368,112.68 L372,113.19 L376,113.63 L380,114.01 L384,114.33 L388,114.61 L392,114.84 L396,115.04 L400,115.21 L400,116 Z"/>
</svg>
